{
    "accessors" : [
        {
            "bufferView" : 0,
            "componentType" : 5123,
            "count" : 17088,
            "max" : [
                3243
            ],
            "min" : [
                0
            ],
            "type" : "SCALAR"
        },
        {
            "bufferView" : 1,
            "componentType" : 5126,
            "count" : 3244,
            "max" : [
                0.9341403245925903,
                1.904811978340149,
                0.9063407778739929
            ],
            "min" : [
                -0.9207560420036316,
                -1.2224913835525513,
                -0.9088868498802185
            ],
            "type" : "VEC3"
        },
        {
            "bufferView" : 2,
            "componentType" : 5126,
            "count" : 3244,
            "max" : [
                0.999664306640625,
                0.9957579374313354,
                0.999755859375
            ],
            "min" : [
                -0.999969482421875,
                -0.999847412109375,
                -0.999176025390625
            ],
            "type" : "VEC3"
        },
        {
            "bufferView" : 3,
            "componentType" : 5126,
            "count" : 3244,
            "max" : [
                0.9998549818992615,
                0.9998425245285034,
                0.999990701675415,
                1.0
            ],
            "min" : [
                -0.9998549222946167,
                -0.9966784119606018,
                -0.9999213814735413,
                1.0
            ],
            "type" : "VEC4"
        },
        {
            "bufferView" : 4,
            "componentType" : 5126,
            "count" : 3244,
            "max" : [
                0.9785323739051819,
                0.9755764901638031
            ],
            "min" : [
                0.007814973592758179,
                0.0194319486618042
            ],
            "type" : "VEC2"
        },
        {
            "bufferView" : 5,
            "componentType" : 5123,
            "count" : 3244,
            "max" : [
                0,
                0,
                0,
                0
            ],
            "min" : [
                0,
                0,
                0,
                0
            ],
            "type" : "VEC4"
        },
        {
            "bufferView" : 6,
            "componentType" : 5126,
            "count" : 3244,
            "max" : [
                0.0,
                0.0,
                0.0,
                0.0
            ],
            "min" : [
                0.0,
                0.0,
                0.0,
                0.0
            ],
            "type" : "VEC4"
        }
    ],
    "asset" : {
        "generator" : "Khronos Blender glTF 2.0 exporter",
        "version" : "2.0"
    },
    "bufferViews" : [
        {
            "buffer" : 0,
            "byteLength" : 34176,
            "byteOffset" : 0,
            "target" : 34963
        },
        {
            "buffer" : 0,
            "byteLength" : 38928,
            "byteOffset" : 34176,
            "target" : 34962
        },
        {
            "buffer" : 0,
            "byteLength" : 38928,
            "byteOffset" : 73104,
            "target" : 34962
        },
        {
            "buffer" : 0,
            "byteLength" : 51904,
            "byteOffset" : 112032,
            "target" : 34962
        },
        {
            "buffer" : 0,
            "byteLength" : 25952,
            "byteOffset" : 163936,
            "target" : 34962
        },
        {
            "buffer" : 0,
            "byteLength" : 25952,
            "byteOffset" : 189888,
            "target" : 34962
        },
        {
            "buffer" : 0,
            "byteLength" : 51904,
            "byteOffset" : 215840,
            "target" : 34962
        }
    ],
    "buffers" : [
        {
            "byteLength" : 267744,
            "uri" : "data:application/octet-stream;base64,"
        }
    ],
    "cameras" : [
        {
            "name" : "Camera",
            "perspective" : {
                "aspectRatio" : 1.7777777777777777,
                "yfov" : 0.5033799372418416,
                "zfar" : 100.0,
                "znear" : 0.10000000149011612
            },
            "type" : "perspective"
        }
    ],
    "materials" : [
        {
            "name" : "bands",
            "pbrMetallicRoughness" : {
                "baseColorFactor" : [
                    0.8000000715255737,
                    0.29741546511650085,
                    0.023386413231492043,
                    1.0
                ],
                "metallicFactor" : 0.0
            }
        },
        {
            "name" : "handles",
            "pbrMetallicRoughness" : {
                "baseColorFactor" : [
                    0.2202569842338562,
                    0.03468799963593483,
                    0.0042134858667850494,
                    1.0
                ],
                "metallicFactor" : 0.0
            }
        },
        {
            "name" : "hat",
            "pbrMetallicRoughness" : {
                "baseColorFactor" : [
                    0.800000011920929,
                    0.800000011920929,
                    0.800000011920929,
                    1.0
                ],
                "metallicFactor" : 0.0
            }
        },
        {
            "alphaMode" : "BLEND",
            "name" : "scrollpaper2",
            "pbrMetallicRoughness" : {
                "baseColorFactor" : [
                    0.8000000715255737,
                    0.4207707941532135,
                    0.25112035870552063,
                    1.0
                ],
                "metallicFactor" : 0.0
            }
        },
        {
            "name" : "textpaper",
            "pbrMetallicRoughness" : {
                "baseColorFactor" : [
                    0.8000000715255737,
                    0.4207707941532135,
                    0.25112035870552063,
                    1.0
                ],
                "metallicFactor" : 0.0
            }
        }
    ],
    "meshes" : [
        {
            "name" : "RetopoFlow.001",
            "primitives" : [
                {
                    "attributes" : {
                        "JOINTS_0" : 5,
                        "NORMAL" : 2,
                        "POSITION" : 1,
                        "TANGENT" : 3,
                        "TEXCOORD_0" : 4,
                        "WEIGHTS_0" : 6
                    },
                    "indices" : 0,
                    "material" : 2
                }
            ]
        }
    ],
    "nodes" : [
        {
            "camera" : 0,
            "name" : "Correction_Camera",
            "rotation" : [
                -0.7071067690849304,
                -0.0,
                0.0,
                0.7071067690849304
            ]
        },
        {
            "children" : [
                0
            ],
            "name" : "Camera",
            "rotation" : [
                0.7071068286895752,
                0.0,
                -0.0,
                0.7071067094802856
            ],
            "scale" : [
                1.0,
                1.0000001192092896,
                1.0000001192092896
            ],
            "translation" : [
                0.0,
                -2.013878201978514e-06,
                14.988802909851074
            ]
        },
        {
            "name" : "Lamp",
            "translation" : [
                4.076245307922363,
                5.903861999511719,
                -1.0054539442062378
            ]
        },
        {
            "mesh" : 0,
            "name" : "object1.002"
        }
    ],
    "scene" : 0,
    "scenes" : [
        {
            "name" : "Scene",
            "nodes" : [
                2,
                1,
                3
            ]
        }
    ]
}
